<svg xmlns="http://www.w3.org/2000/svg" version="1.1" xmlns:xlink="http://www.w3.org/1999/xlink" xmlns:svgjs="http://svgjs.dev/svgjs" width="1500" height="431" viewBox="0 0 1500 431"><g transform="matrix(1,0,0,1,-0.9084522071641459,-0.9191096960750542)"><svg viewBox="0 0 396 114" data-background-color="#3a3d53" preserveAspectRatio="xMidYMid meet" height="431" width="1500" xmlns="http://www.w3.org/2000/svg" xmlns:xlink="http://www.w3.org/1999/xlink"><g id="tight-bounds" transform="matrix(1,0,0,1,0.24008861730862918,0.24313780900229176)"><svg viewBox="0 0 395.52 113.51375661013333" height="113.51375661013333" width="395.52"><g><svg viewBox="0 0 395.52 113.51375661013333" height="113.51375661013333" width="395.52"><g><svg viewBox="0 0 395.52 113.51375661013333" height="113.51375661013333" width="395.52"><g id="textblocktransform"><svg viewBox="0 0 395.52 113.51375661013333" height="113.51375661013333" width="395.52" id="textblock"><g><svg viewBox="0 0 395.52 93.49392229333333" height="93.49392229333333" width="395.52"><path d="M394.594 20.053C392.735 10.348 387.435 7.65 387.435 7.65 371.165-2.346 350.86-0.191 332.619 1.245 300.414 1.303 268.339 3.438 236.208 4.583 168.767 4.758 100.749 1.886 33.643 8.97 27.339 11.144-6.54 9.397 1.121 21.295 3.129 26.244 10.456 31.737 10.232 36.279 11.236 37.075 12.631 35.25 13.226 36.395 15.309 39.481 18.711 38.026 21.501 39.85 17.614 44.722 20.403 48.778 23.062 53.029 18.377 54.135 12.371 53.611 9.675 57.28 9.396 59.939 7.89 59.434 6.235 59.318 5.026 59.24 2.59 59.531 2.999 60.366 4.394 63.219-1.594 64.869 2.162 67.664-0.422 70.691 3.948 73.312 3.353 76.592 3.278 77.252 3.687 77.815 4.338 77.97 7.22 78.805 3.018 80.435 3.464 82.201 33.029 94.274 65.104 85.928 95.394 91.479 103.259 87.597 97.346 92.857 100.489 92.042 102.943 91.091 104.728 95.031 107.499 92.799 107.927 92.158 107.276 90.644 108.8 90.935 109.6 91.091 110.307 91.052 110.418 90.159 110.586 88.82 109.117 89.654 108.726 88.956 112.947 85.423 111.906 93.827 115.866 93.478 115.68 92.449 114.528 90.974 116.889 91.168 119.232 89.693 119.306 88.47 121.389 91.789 121.463 92.507 121.835 93.012 122.43 93.361 128.938 89.751 135.409 94.642 142.233 93.012 146.417 91.226 150.433 93.983 154.672 93.303 156.16 92.76 157.666 91.789 159.098 93.42 176.632 93.769 195.319 92.313 211.943 93.478 256.364 91.304 303.836 94.371 350.674 91.498 361.719 90.392 373.192 88.82 383.958 87.558 383.958 87.558 392.679 84.103 392.679 68.576S394.538 54.989 394.817 42.626C395.096 30.262 396.398 29.757 394.538 20.053Z" opacity="1" fill="#ffffff" data-fill-palette-color="tertiary"></path><g transform="matrix(1,0,0,1,55.76832,26.068561146666667)"><svg width="283.98335999999995" viewBox="3.85 -39.25 272.92999999999995 39.75" height="41.356799999999986" data-palette-color="#3a3d53"><path d="M36.05-16.3L36.1-11.5Q36.2-5.4 36.2-2.15L36.2-2.15Q36.2-1 35.58-0.35 34.95 0.3 33.75 0.3L33.75 0.3Q32.55 0.3 31.88-0.33 31.2-0.95 31.2-2L31.2-2 31.2-16.1Q31.2-23.05 30.7-26.35 30.2-29.65 29.4-29.65L29.4-29.65Q28.7-29.65 27.45-27.4 26.2-25.15 25.35-23L25.35-23Q24.05-19.9 22.8-14.1L22.8-14.1Q22.35-12.2 20-12.2L20-12.2Q17.75-12.2 17.25-13.95L17.25-13.95Q16.9-15 16.45-16.8L16.45-16.8Q15.4-20.8 14.6-22.9L14.6-22.9Q13.75-25.25 12.5-27.5 11.25-29.75 10.65-29.75L10.65-29.75Q9.2-29.75 8.9-16.45L8.9-16.45Q8.85-14.05 8.85-9.5L8.85-9.5 8.85-2Q8.85-1.05 8.18-0.48 7.5 0.1 6.25 0.1L6.25 0.1Q4.95 0.1 4.4-0.55 3.85-1.2 3.85-2.55L3.85-2.55Q3.85-5.2 3.95-9.9L3.95-9.9 4-16.55Q4-26.5 5.43-31.05 6.85-35.6 10.05-35.6L10.05-35.6Q13.7-35.6 15.95-30.98 18.2-26.35 19.95-19.35L19.95-19.35Q21.5-25.75 24.13-30.68 26.75-35.6 30.35-35.6L30.35-35.6Q32.55-35.6 33.77-33.38 35-31.15 35.5-26.98 36-22.8 36.05-16.3L36.05-16.3ZM63.5-6.3Q63.5-5.1 63.75-4.33 64-3.55 64.35-2.95 64.7-2.35 64.7-2.2L64.7-2.2Q64.7-1.4 64.02-0.8 63.35-0.2 62.5-0.2L62.5-0.2Q61.5-0.2 60.55-1.48 59.6-2.75 59.6-4L59.6-4 59.6-4.3Q58.6-2.2 56.65-1.07 54.7 0.05 51.95 0.05L51.95 0.05Q47.7 0.05 45.47-2.93 43.25-5.9 43.25-11.2L43.25-11.2 43.25-23.35Q43.25-24.2 43.92-24.7 44.6-25.2 45.65-25.2L45.65-25.2Q46.75-25.2 47.47-24.7 48.2-24.2 48.2-23.35L48.2-23.35 48.2-11.15Q48.2-3.9 52.55-3.9L52.55-3.9Q55.6-3.9 56.97-6.68 58.35-9.45 58.35-14.7L58.35-14.7 58.35-23.35Q58.35-24.35 59-24.93 59.65-25.5 60.75-25.5L60.75-25.5Q61.9-25.5 62.6-24.9 63.3-24.3 63.3-23.35L63.3-23.35 63.5-6.3ZM80.2 0.3Q76.75 0.3 74.25-1.35 71.75-3 70.5-5.65L70.5-5.65Q70.15-6.35 70.15-6.75L70.15-6.75Q70.2-7.6 71.1-8.28 72-8.95 72.9-8.85L72.9-8.85Q73.4-8.75 73.67-8.47 73.95-8.2 74.45-7.55L74.45-7.55Q75.8-5.7 77.02-4.73 78.25-3.75 80.25-3.75L80.25-3.75Q82.1-3.75 83.35-4.65 84.6-5.55 84.6-6.9L84.6-6.9Q84.6-8.35 83.3-9.13 82-9.9 79.2-10.9L79.2-10.9Q76.6-11.75 74.95-12.58 73.3-13.4 72.12-14.88 70.95-16.35 70.95-18.65L70.95-18.65Q70.95-20.75 72.12-22.48 73.3-24.2 75.4-25.18 77.5-26.15 80.15-26.15L80.15-26.15Q82.85-26.15 84.9-25.13 86.95-24.1 88.05-22.4 89.15-20.7 89.15-18.7L89.15-18.7Q89.15-17.55 88.62-17.03 88.1-16.5 86.9-16.5L86.9-16.5Q85.7-16.5 85.3-16.93 84.9-17.35 84.85-18.05L84.85-18.05Q84.65-20 83.47-21.03 82.3-22.05 80.15-22.05L80.15-22.05Q77.9-22.05 76.87-21.03 75.85-20 75.85-18.75L75.85-18.75Q75.85-17.25 77.17-16.45 78.5-15.65 81.4-14.65L81.4-14.65Q84-13.75 85.62-12.95 87.25-12.15 88.4-10.73 89.55-9.3 89.55-7.05L89.55-7.05Q89.55-4.65 88.22-3 86.9-1.35 84.75-0.53 82.6 0.3 80.2 0.3L80.2 0.3ZM100.84-27.55Q99.29-27.55 98.29-28.58 97.29-29.6 97.29-31.15L97.29-31.15Q97.29-32.65 98.32-33.65 99.34-34.65 100.94-34.65L100.94-34.65Q102.54-34.65 103.52-33.7 104.49-32.75 104.49-31.2L104.49-31.2Q104.49-29.65 103.47-28.6 102.44-27.55 100.84-27.55L100.84-27.55ZM100.14-0.3Q98.99-0.3 98.29-0.85 97.59-1.4 97.59-2.4L97.59-2.4 98.09-22.7Q98.09-23.7 98.79-24.28 99.49-24.85 100.59-24.85L100.59-24.85Q101.69-24.85 102.42-24.25 103.14-23.65 103.14-22.65L103.14-22.65 102.64-2.35Q102.59-1.35 101.92-0.83 101.24-0.3 100.14-0.3L100.14-0.3ZM114.89 0.3Q113.84 0.3 113.14-0.2 112.44-0.7 112.44-1.5L112.44-1.5 112.44-35.7Q112.44-36.7 113.12-37.25 113.79-37.8 114.89-37.8L114.89-37.8Q116.04-37.8 116.72-37.25 117.39-36.7 117.39-35.7L117.39-35.7 117.29-19.25 119.69-20.65Q127.59-25.25 129.74-26.55L129.74-26.55Q130.64-27.05 131.29-27L131.29-27Q132.09-26.95 132.69-26.13 133.29-25.3 133.29-24.35L133.29-24.35Q133.29-23.95 132.99-23.6 132.69-23.25 131.94-22.8L131.94-22.8 117.84-14.3 132.24-3.85Q132.84-3.35 132.84-2.45L132.84-2.45Q132.84-1.55 132.12-0.85 131.39-0.15 130.49-0.15L130.49-0.15Q129.64-0.15 128.69-0.8L128.69-0.8Q126.94-2 122.89-5.05L122.89-5.05Q119.69-7.5 117.34-9.2L117.34-9.2 117.29-1.55Q117.29-0.75 116.62-0.23 115.94 0.3 114.89 0.3L114.89 0.3ZM150.09 0Q146.44 0 143.71-1.5 140.99-3 139.54-5.53 138.09-8.05 138.09-10.95L138.09-10.95Q138.09-13.45 140.54-13.45L140.54-13.45Q142.99-13.45 143.09-11.3L143.09-11.3Q143.14-8.1 145.19-6.3 147.24-4.5 150.09-4.5L150.09-4.5Q152.74-4.5 154.51-5.73 156.29-6.95 156.29-9.25L156.29-9.25Q156.29-11 155.29-12.13 154.29-13.25 152.71-13.95 151.14-14.65 148.64-15.4L148.64-15.4Q145.84-16.2 143.71-17.07 141.59-17.95 139.79-19.98 137.99-22 137.99-25.25L137.99-25.25Q137.99-28.2 139.54-30.5 141.09-32.8 143.74-34.1 146.39-35.4 149.49-35.4L149.49-35.4Q152.74-35.4 155.36-34 157.99-32.6 159.49-30.33 160.99-28.05 160.99-25.5L160.99-25.5Q160.99-24.2 160.39-23.63 159.79-23.05 158.59-23.05L158.59-23.05Q157.29-23.05 156.76-23.6 156.24-24.15 156.09-25.25L156.09-25.25Q155.99-27.6 154.19-29.25 152.39-30.9 149.49-30.9L149.49-30.9Q146.64-30.9 144.81-29.3 142.99-27.7 142.99-25.2L142.99-25.2Q142.99-23.6 143.94-22.63 144.89-21.65 146.34-21.08 147.79-20.5 150.89-19.55L150.89-19.55Q153.54-18.75 155.66-17.73 157.79-16.7 159.51-14.63 161.24-12.55 161.24-9.35L161.24-9.35Q161.24-6.55 159.79-4.42 158.34-2.3 155.79-1.15 153.24 0 150.09 0L150.09 0ZM189.49-19Q190.13-16.25 190.41-12.08 190.69-7.9 190.69-1.95L190.69-1.95Q190.69-1.15 189.96-0.6 189.24-0.05 188.19-0.05L188.19-0.05Q187.13-0.05 186.44-0.6 185.74-1.15 185.74-2.2L185.74-2.2Q185.74-14.8 184.74-18.35L184.74-18.35Q184.24-20.15 183.24-20.93 182.24-21.7 180.69-21.7L180.69-21.7Q177.24-21.7 175.41-18.93 173.59-16.15 173.59-12.35L173.59-12.35 173.59-1.9Q173.59-1.1 172.88-0.6 172.19-0.1 171.13-0.1L171.13-0.1Q170.03-0.1 169.34-0.63 168.63-1.15 168.63-1.95L168.63-1.95Q168.63-12.05 168.88-21.3L168.88-21.3Q169.09-28.45 169.69-37.1L169.69-37.1Q169.84-39.25 172.13-39.25L172.13-39.25Q173.24-39.25 173.86-38.78 174.49-38.3 174.44-37.4L174.44-37.4 173.94-27.8 173.63-22.3Q174.84-23.85 176.78-24.85 178.74-25.85 181.49-25.85L181.49-25.85Q184.78-25.85 186.69-24.18 188.59-22.5 189.49-19L189.49-19ZM219.43-4Q220.18-3.9 220.61-3.5 221.03-3.1 221.03-2.15L221.03-2.15Q221.03-1.25 220.58-0.65 220.13-0.05 219.33-0.05L219.33-0.05Q217.28-0.05 216.26-0.65 215.23-1.25 214.38-2.9L214.38-2.9Q212.28 0.5 206.58 0.5L206.58 0.5Q200.78 0.5 198.03-3.03 195.28-6.55 195.28-11.8L195.28-11.8Q195.28-15.3 196.68-18.25 198.08-21.2 200.78-22.95 203.48-24.7 207.08-24.7L207.08-24.7Q209.38-24.7 211.16-23.8 212.93-22.9 213.83-21.35L213.83-21.35 213.98-22.6Q214.18-24.4 216.13-24.4L216.13-24.4Q217.43-24.4 217.98-23.83 218.53-23.25 218.43-22.4L218.43-22.4Q217.93-18.65 217.83-16.75L217.83-16.75Q217.68-14.95 217.68-12.05L217.68-12.05 217.68-8.75Q217.68-6.15 217.96-5.15 218.23-4.15 219.43-4L219.43-4ZM212.78-8.75Q212.83-11 212.83-14.9L212.83-14.9Q212.83-16.95 211.96-18.25 211.08-19.55 209.81-20.15 208.53-20.75 207.23-20.75L207.23-20.75Q204.98-20.75 203.41-19.43 201.83-18.1 201.06-16.05 200.28-14 200.28-11.8L200.28-11.8Q200.28-8.45 201.86-5.98 203.43-3.5 206.78-3.5L206.78-3.5Q209.43-3.5 211.08-4.85 212.73-6.2 212.78-8.75L212.78-8.75ZM239.48-25.8Q242.68-25.8 244.58-23.75 246.48-21.7 246.48-18.65L246.48-18.65Q246.48-15.75 244.68-14.1 242.88-12.45 240.03-12.45L240.03-12.45Q238.78-12.45 238.25-12.83 237.73-13.2 237.73-14.15L237.73-14.15Q237.73-15 238.11-15.38 238.48-15.75 239.23-15.8L239.23-15.8Q242.38-16.05 242.38-18.75L242.38-18.75Q242.38-20.05 241.66-20.95 240.93-21.85 239.43-21.85L239.43-21.85Q237.68-21.85 236.31-20.2 234.93-18.55 234.11-16.2 233.28-13.85 233.13-11.75L233.13-11.75Q232.78-8 232.78-3.35L232.78-3.35Q232.78-1.1 232.28-0.35 231.78 0.4 230.38 0.4L230.38 0.4Q229.03 0.4 228.46-0.18 227.88-0.75 227.88-2.1L227.88-2.1Q227.83-3.05 227.83-11.15L227.83-11.15Q227.83-15.2 227.28-20.5L227.28-20.5 226.98-24.35Q226.93-25.3 227.56-25.85 228.18-26.4 229.33-26.4L229.33-26.4Q231.33-26.4 231.43-24.6L231.43-24.6 231.78-19.5Q232.68-22.35 234.68-24.08 236.68-25.8 239.48-25.8L239.48-25.8ZM265.03 0.3Q260.78 0.3 257.75-1.45 254.73-3.2 253.2-6.15 251.68-9.1 251.68-12.65L251.68-12.65Q251.68-16.3 253.33-19.28 254.98-22.25 257.98-23.98 260.98-25.7 264.83-25.7L264.83-25.7Q268.23-25.7 270.95-24.33 273.68-22.95 275.23-20.45 276.78-17.95 276.78-14.75L276.78-14.75Q276.78-13.05 276.28-12.33 275.78-11.6 274.23-11.55L274.23-11.55 256.18-11.3Q256.18-9.65 257.23-7.9 258.28-6.15 260.25-4.98 262.23-3.8 264.88-3.8L264.88-3.8Q266.78-3.8 268.1-4.33 269.43-4.85 270.23-5.58 271.03-6.3 272.13-7.5L272.13-7.5Q272.68-8.05 273.53-8.05L273.53-8.05Q274.33-8.05 275.05-7.43 275.78-6.8 275.78-6L275.78-6Q275.78-5.35 275.33-4.75L275.33-4.75Q273.93-2.75 271.58-1.23 269.23 0.3 265.03 0.3L265.03 0.3ZM256.18-14.8L272.08-15.1Q272.38-15.1 272.5-15.28 272.63-15.45 272.63-15.8L272.63-15.8Q272.63-18.45 270.4-20.13 268.18-21.8 264.83-21.8L264.83-21.8Q262.28-21.8 260.3-20.6 258.33-19.4 257.25-17.73 256.18-16.05 256.18-14.8L256.18-14.8Z" opacity="1" transform="matrix(1,0,0,1,0,0)" fill="#3a3d53" class="wordmark-text-0" data-fill-palette-color="quaternary" id="text-0"></path></svg></g></svg></g><g transform="matrix(1,0,0,1,139.195462656,103.25727021013333)"><svg viewBox="0 0 117.12907468799999 10.256486399999996" height="10.256486399999996" width="117.12907468799999"><g transform="matrix(1,0,0,1,0,0)"><svg width="117.12907468799999" viewBox="0.85 -37.9 570.93 50" height="10.256486399999996" data-palette-color="#000000"><path d="M5.45-32.15L9.45-32.65 9.45-25.15 16.7-25.15 16.7-21.9 9.45-21.9 9.45-8.55Q9.45-6.9 9.53-5.8 9.6-4.7 9.85-4.05 10.1-3.4 10.55-3.13 11-2.85 11.7-2.85L11.7-2.85Q13.6-2.9 16.1-4.25L16.1-4.25 17.3-1.2Q15.65-0.1 14.23 0.28 12.8 0.65 11.4 0.65L11.4 0.65Q8.1 0.65 6.78-1.23 5.45-3.1 5.45-7.45L5.45-7.45 5.45-21.9 0.85-21.9 0.85-25.15 5.45-25.15 5.45-32.15ZM35.8-5.85L35.8-11.55Q34.8-11.5 33.9-11.45 33-11.4 32.12-11.33 31.25-11.25 30.55-11.15L30.55-11.15Q26.95-10.7 25.45-9.58 23.95-8.45 23.95-6.35L23.95-6.35Q23.95-4.6 25.02-3.73 26.1-2.85 27.85-2.85L27.85-2.85Q30.25-2.85 32.12-3.68 34-4.5 35.8-5.85L35.8-5.85ZM36.25 0.4L35.75-2.35Q33.4-1 31.37-0.18 29.35 0.65 27 0.65L27 0.65Q23.65 0.65 21.67-0.98 19.7-2.6 19.7-6.35L19.7-6.35Q19.7-8.3 20.7-9.75 21.7-11.2 23.32-12.18 24.95-13.15 27-13.7 29.05-14.25 31.2-14.4L31.2-14.4Q32.1-14.5 33.55-14.58 35-14.65 35.8-14.7L35.8-14.7Q35.8-16.45 35.7-17.82 35.6-19.2 35.1-20.18 34.6-21.15 33.62-21.65 32.65-22.15 30.85-22.15L30.85-22.15Q29.4-22.15 28.05-21.98 26.7-21.8 25.65-21.6L25.65-21.6Q24.4-21.35 23.35-21.05L23.35-21.05 22.55-24.5Q23.8-24.8 25.25-25.05L25.25-25.05Q26.5-25.3 28.15-25.48 29.8-25.65 31.7-25.65L31.7-25.65Q34.25-25.65 35.82-24.9 37.4-24.15 38.27-22.88 39.15-21.6 39.47-19.98 39.8-18.35 39.8-16.55L39.8-16.55 39.8-4.55Q39.8-3.85 39.82-3.08 39.85-2.3 39.92-1.55 40-0.8 40.1 0L40.1 0 36.25 0.4ZM46.85 0L46.85-37.45 50.85-37.9 50.85-15.35 62-25.15 67.5-25.15 56.6-15.6 67.9 0 62.85 0 53.65-13.05 50.85-10.6 50.85 0 46.85 0ZM88.49-3.95L89.24-0.6Q88.09-0.25 86.87 0 85.64 0.25 84.17 0.45 82.69 0.65 81.09 0.65L81.09 0.65Q78.59 0.65 76.44-0.05 74.29-0.75 72.69-2.3 71.09-3.85 70.17-6.33 69.24-8.8 69.24-12.4L69.24-12.4Q69.24-15.65 70.14-18.13 71.04-20.6 72.62-22.28 74.19-23.95 76.32-24.8 78.44-25.65 80.94-25.65L80.94-25.65Q83.39-25.65 85.19-24.7 86.99-23.75 88.17-22.13 89.34-20.5 89.92-18.32 90.49-16.15 90.49-13.75L90.49-13.75 89.74-11.55 73.59-11.55Q73.59-10 73.99-8.45 74.39-6.9 75.37-5.65 76.34-4.4 77.92-3.63 79.49-2.85 81.84-2.85L81.84-2.85Q83.34-2.85 84.59-3.03 85.84-3.2 86.77-3.43 87.69-3.65 88.49-3.95L88.49-3.95ZM73.74-14.75L86.34-14.75Q86.34-15.1 86.19-16.3 86.04-17.5 85.49-18.8 84.94-20.1 83.79-21.13 82.64-22.15 80.74-22.15L80.74-22.15Q78.64-22.15 77.29-21.28 75.94-20.4 75.14-19.2 74.34-18 74.04-16.75 73.74-15.5 73.74-14.75L73.74-14.75ZM114.19-0.65L104.14-25.15 108.39-25.15 113.09-13.8Q113.79-12.15 114.36-10.5 114.94-8.85 115.39-7.55L115.39-7.55Q115.94-6 116.34-4.55L116.34-4.55 116.39-4.55Q116.84-6 117.39-7.55L117.39-7.55Q117.84-8.85 118.44-10.5 119.04-12.15 119.69-13.8L119.69-13.8 124.04-25.15 128.24-25.15 116.34 4.85Q115.64 6.7 114.51 8.05 113.39 9.4 112.34 10.3L112.34 10.3Q111.09 11.35 109.74 12.1L109.74 12.1 107.79 8.65Q108.84 8.15 109.74 7.4L109.74 7.4Q110.54 6.75 111.34 5.78 112.14 4.8 112.64 3.45L112.64 3.45 114.19-0.65ZM134.84-12.45L134.84-12.45Q134.84-7.6 137.01-5.23 139.19-2.85 142.89-2.85L142.89-2.85Q146.54-2.85 148.59-5.2 150.64-7.55 150.64-12.25L150.64-12.25Q150.64-17.25 148.46-19.7 146.29-22.15 142.54-22.15L142.54-22.15Q138.79-22.15 136.81-19.73 134.84-17.3 134.84-12.45ZM130.59-12.5L130.59-12.5Q130.59-16.3 131.79-18.82 132.99-21.35 134.84-22.88 136.69-24.4 138.81-25.03 140.94-25.65 142.84-25.65L142.84-25.65Q144.64-25.65 146.76-25.08 148.89-24.5 150.69-23.03 152.49-21.55 153.69-19.07 154.89-16.6 154.89-12.8L154.89-12.8Q154.89-8.85 153.66-6.25 152.44-3.65 150.59-2.13 148.74-0.6 146.59 0.03 144.44 0.65 142.59 0.65L142.59 0.65Q140.69 0.65 138.59 0.05 136.49-0.55 134.71-2.02 132.94-3.5 131.76-6.05 130.59-8.6 130.59-12.5ZM176.03 0.4L175.73-2.75 175.63-2.75Q175.18-2.4 174.33-1.83 173.48-1.25 172.38-0.7 171.28-0.15 169.96 0.25 168.63 0.65 167.28 0.65L167.28 0.65Q165.43 0.65 164.13 0.18 162.83-0.3 162.03-1.4 161.23-2.5 160.88-4.3 160.53-6.1 160.53-8.8L160.53-8.8 160.53-25.15 164.53-25.15 164.53-9.4Q164.53-7.9 164.58-6.7 164.63-5.5 164.93-4.65 165.23-3.8 165.91-3.33 166.58-2.85 167.83-2.85L167.83-2.85Q169.13-2.85 170.53-3.4 171.93-3.95 173.08-4.65L173.08-4.65Q174.43-5.45 175.73-6.45L175.73-6.45 175.73-25.15 179.73-25.15 179.73-3.25Q179.78-1.45 179.98 0L179.98 0 176.03 0.4ZM187.03 0L187.03-21.1Q187.03-22.25 186.78-24.7L186.78-24.7 190.48-25.2 190.88-21.55 190.93-21.55Q191.83-22.7 192.68-23.55 193.53-24.4 194.46-25.03 195.38-25.65 196.23-25.65L196.23-25.65Q197.38-25.7 199.43-25.4L199.43-25.4 198.53-21.55Q196.88-21.85 196.23-21.8L196.23-21.8Q195.38-21.8 194.43-21 193.48-20.2 192.78-19.3L192.78-19.3Q191.88-18.2 191.03-16.8L191.03-16.8 191.03 0 187.03 0ZM215.33 0L215.33-20.6Q215.33-22.3 215.03-24.7L215.03-24.7 218.78-25.2 219.33-22.05Q220.68-23.05 221.98-23.8 223.28-24.55 224.78-25.1 226.28-25.65 227.83-25.65L227.83-25.65Q230.33-25.65 231.78-24.78 233.23-23.9 233.93-21.8L233.93-21.8Q235.98-23.25 238.2-24.45 240.43-25.65 242.83-25.65L242.83-25.65Q244.68-25.65 245.98-25.18 247.28-24.7 248.08-23.6 248.88-22.5 249.23-20.7 249.58-18.9 249.58-16.2L249.58-16.2 249.58 0 245.58 0 245.58-15.75Q245.58-17.25 245.53-18.43 245.48-19.6 245.18-20.43 244.88-21.25 244.2-21.7 243.53-22.15 242.28-22.15L242.28-22.15Q241.13-22.15 240.1-21.83 239.08-21.5 237.98-20.9 236.88-20.3 234.58-18.45L234.58-18.45 234.58 0 230.58 0 230.58-15.75Q230.58-17.25 230.53-18.43 230.48-19.6 230.18-20.43 229.88-21.25 229.2-21.7 228.53-22.15 227.28-22.15L227.28-22.15Q225.98-22.15 224.58-21.6 223.18-21.05 221.93-20.3 220.68-19.55 219.33-18.55L219.33-18.55 219.33 0 215.33 0ZM271.97 0.4L271.67-2.75 271.57-2.75Q271.12-2.4 270.27-1.83 269.42-1.25 268.32-0.7 267.22-0.15 265.9 0.25 264.57 0.65 263.22 0.65L263.22 0.65Q261.37 0.65 260.07 0.18 258.77-0.3 257.97-1.4 257.17-2.5 256.82-4.3 256.47-6.1 256.47-8.8L256.47-8.8 256.47-25.15 260.47-25.15 260.47-9.4Q260.47-7.9 260.52-6.7 260.57-5.5 260.87-4.65 261.17-3.8 261.85-3.33 262.52-2.85 263.77-2.85L263.77-2.85Q265.07-2.85 266.47-3.4 267.87-3.95 269.02-4.65L269.02-4.65Q270.37-5.45 271.67-6.45L271.67-6.45 271.67-25.15 275.67-25.15 275.67-3.25Q275.72-1.45 275.92 0L275.92 0 271.97 0.4ZM297.22-24.6L296.52-21.05Q294.42-21.7 292.8-21.93 291.17-22.15 289.82-22.15L289.82-22.15Q288.07-22.15 286.9-21.3 285.72-20.45 285.72-19.1L285.72-19.1Q285.77-17.9 286.77-17.05 287.77-16.2 289.1-15.53 290.42-14.85 292.05-14.05 293.67-13.25 295.1-12.25 296.52-11.25 297.42-9.85 298.32-8.45 298.37-6.5L298.37-6.5Q298.32-4.4 297.45-3.03 296.57-1.65 295.2-0.83 293.82 0 292.22 0.33 290.62 0.65 289.22 0.65L289.22 0.65Q287.42 0.65 285.5 0.45 283.57 0.25 281.37-0.4L281.37-0.4 282.12-4Q284.37-3.4 286.22-3.13 288.07-2.85 289.27-2.85L289.27-2.85Q290.17-2.85 291.05-3.05 291.92-3.25 292.62-3.63 293.32-4 293.75-4.6 294.17-5.2 294.17-5.95L294.17-5.95Q294.12-7.35 293.22-8.33 292.32-9.3 290.9-10.08 289.47-10.85 287.85-11.63 286.22-12.4 284.8-13.43 283.37-14.45 282.42-15.88 281.47-17.3 281.47-19.4L281.47-19.4Q281.47-20.9 282.25-22.08 283.02-23.25 284.25-24.03 285.47-24.8 286.95-25.23 288.42-25.65 289.82-25.65L289.82-25.65Q291.27-25.65 293.07-25.43 294.87-25.2 297.22-24.6L297.22-24.6ZM303.77 0L303.77-25.2 307.77-25.65 307.77 0 303.77 0ZM303.12-32.35L303.12-32.35Q303.12-33.5 303.89-34.27 304.67-35.05 305.82-35.05L305.82-35.05Q307.02-35.05 307.84-34.27 308.67-33.5 308.67-32.35L308.67-32.35Q308.67-31.2 307.84-30.43 307.02-29.65 305.82-29.65L305.82-29.65Q304.67-29.65 303.89-30.43 303.12-31.2 303.12-32.35ZM331.37-24.85L330.57-21.5Q329.72-21.7 328.22-21.93 326.72-22.15 325.17-22.15L325.17-22.15Q322.92-22.15 321.49-21.25 320.07-20.35 319.27-18.93 318.47-17.5 318.17-15.78 317.87-14.05 317.87-12.4L317.87-12.4Q317.87-9.85 318.52-8.03 319.17-6.2 320.24-5.05 321.32-3.9 322.72-3.38 324.12-2.85 325.67-2.85L325.67-2.85Q326.72-2.85 327.69-2.98 328.67-3.1 329.49-3.28 330.32-3.45 331.07-3.7L331.07-3.7 331.87-0.35Q330.82-0.05 329.92 0.15 329.02 0.35 327.79 0.5 326.57 0.65 325.17 0.65L325.17 0.65Q322.42 0.65 320.27-0.05 318.12-0.75 316.64-2.3 315.17-3.85 314.39-6.35 313.62-8.85 313.62-12.45L313.62-12.45Q313.62-15.95 314.59-18.48 315.57-21 317.17-22.58 318.77-24.15 320.84-24.9 322.92-25.65 325.17-25.65L325.17-25.65Q326.37-25.65 327.49-25.53 328.62-25.4 329.47-25.25L329.47-25.25Q330.47-25.05 331.37-24.85L331.37-24.85ZM352.36 0L345.56-25.15 349.76-25.15 352.71-13.8Q353.11-12.35 353.44-10.73 353.76-9.1 354.06-7.7L354.06-7.7Q354.36-6.05 354.71-4.45L354.71-4.45 354.76-4.45Q355.11-6.05 355.56-7.7L355.56-7.7Q355.96-9.1 356.41-10.73 356.86-12.35 357.31-13.8L357.31-13.8 360.86-25.15 366.21-25.15 369.06-13.8Q369.41-12.35 369.79-10.73 370.16-9.1 370.41-7.7L370.41-7.7Q370.71-6.05 371.01-4.45L371.01-4.45 371.06-4.45Q371.51-6.1 372.01-7.75L372.01-7.75Q372.41-9.15 372.91-10.78 373.41-12.4 373.86-13.8L373.86-13.8 377.36-25.15 381.51-25.15 373.26 0 368.81 0 365.21-13.8Q364.71-15.7 364.39-17.23 364.06-18.75 363.81-19.8L363.81-19.8Q363.56-21.05 363.36-22L363.36-22 363.26-22Q363.06-21.05 362.76-19.8L362.76-19.8Q362.51-18.75 362.06-17.23 361.61-15.7 361.06-13.8L361.06-13.8 356.81 0 352.36 0ZM385.76 0L385.76-25.2 389.76-25.65 389.76 0 385.76 0ZM385.11-32.35L385.11-32.35Q385.11-33.5 385.88-34.27 386.66-35.05 387.81-35.05L387.81-35.05Q389.01-35.05 389.83-34.27 390.66-33.5 390.66-32.35L390.66-32.35Q390.66-31.2 389.83-30.43 389.01-29.65 387.81-29.65L387.81-29.65Q386.66-29.65 385.88-30.43 385.11-31.2 385.11-32.35ZM398.81-32.15L402.81-32.65 402.81-25.15 410.06-25.15 410.06-21.9 402.81-21.9 402.81-8.55Q402.81-6.9 402.88-5.8 402.96-4.7 403.21-4.05 403.46-3.4 403.91-3.13 404.36-2.85 405.06-2.85L405.06-2.85Q406.96-2.9 409.46-4.25L409.46-4.25 410.66-1.2Q409.01-0.1 407.58 0.28 406.16 0.65 404.76 0.65L404.76 0.65Q401.46 0.65 400.13-1.23 398.81-3.1 398.81-7.45L398.81-7.45 398.81-21.9 394.21-21.9 394.21-25.15 398.81-25.15 398.81-32.15ZM415.15 0L415.15-37.45 419.15-37.9 419.15-22Q420.65-23 422.13-23.75 423.6-24.5 425.15-25.08 426.7-25.65 428.15-25.65L428.15-25.65Q430.2-25.65 431.58-25.18 432.95-24.7 433.8-23.6 434.65-22.5 435.03-20.7 435.4-18.9 435.4-16.2L435.4-16.2 435.4 0 431.4 0 431.4-15.75Q431.4-17.25 431.35-18.43 431.3-19.6 430.93-20.43 430.55-21.25 429.78-21.7 429-22.15 427.6-22.15L427.6-22.15Q426.3-22.15 424.8-21.58 423.3-21 421.95-20.25 420.6-19.5 419.15-18.5L419.15-18.5 419.15 0 415.15 0ZM460.7-0.65L450.65-25.15 454.9-25.15 459.6-13.8Q460.3-12.15 460.87-10.5 461.45-8.85 461.9-7.55L461.9-7.55Q462.45-6 462.85-4.55L462.85-4.55 462.9-4.55Q463.35-6 463.9-7.55L463.9-7.55Q464.35-8.85 464.95-10.5 465.55-12.15 466.2-13.8L466.2-13.8 470.55-25.15 474.75-25.15 462.85 4.85Q462.15 6.7 461.02 8.05 459.9 9.4 458.85 10.3L458.85 10.3Q457.6 11.35 456.25 12.1L456.25 12.1 454.3 8.65Q455.35 8.15 456.25 7.4L456.25 7.4Q457.05 6.75 457.85 5.78 458.65 4.8 459.15 3.45L459.15 3.45 460.7-0.65ZM481.35-12.45L481.35-12.45Q481.35-7.6 483.52-5.23 485.7-2.85 489.4-2.85L489.4-2.85Q493.05-2.85 495.1-5.2 497.15-7.55 497.15-12.25L497.15-12.25Q497.15-17.25 494.97-19.7 492.8-22.15 489.05-22.15L489.05-22.15Q485.3-22.15 483.32-19.73 481.35-17.3 481.35-12.45ZM477.1-12.5L477.1-12.5Q477.1-16.3 478.3-18.82 479.5-21.35 481.35-22.88 483.2-24.4 485.32-25.03 487.45-25.65 489.35-25.65L489.35-25.65Q491.15-25.65 493.27-25.08 495.4-24.5 497.2-23.03 499-21.55 500.2-19.07 501.4-16.6 501.4-12.8L501.4-12.8Q501.4-8.85 500.17-6.25 498.95-3.65 497.1-2.13 495.25-0.6 493.1 0.03 490.95 0.65 489.1 0.65L489.1 0.65Q487.2 0.65 485.1 0.05 483-0.55 481.22-2.02 479.45-3.5 478.27-6.05 477.1-8.6 477.1-12.5ZM522.54 0.4L522.24-2.75 522.14-2.75Q521.69-2.4 520.84-1.83 519.99-1.25 518.89-0.7 517.79-0.15 516.47 0.25 515.14 0.65 513.79 0.65L513.79 0.65Q511.94 0.65 510.64 0.18 509.34-0.3 508.54-1.4 507.74-2.5 507.39-4.3 507.04-6.1 507.04-8.8L507.04-8.8 507.04-25.15 511.04-25.15 511.04-9.4Q511.04-7.9 511.09-6.7 511.14-5.5 511.44-4.65 511.74-3.8 512.42-3.33 513.09-2.85 514.34-2.85L514.34-2.85Q515.64-2.85 517.04-3.4 518.44-3.95 519.59-4.65L519.59-4.65Q520.94-5.45 522.24-6.45L522.24-6.45 522.24-25.15 526.24-25.15 526.24-3.25Q526.29-1.45 526.49 0L526.49 0 522.54 0.4ZM532.44-2.95L532.44-2.95Q532.44-4.15 533.29-5.03 534.14-5.9 535.39-5.9L535.39-5.9Q536.69-5.9 537.59-5.03 538.49-4.15 538.49-2.95L538.49-2.95Q538.49-1.7 537.59-0.85 536.69 0 535.39 0L535.39 0Q534.14 0 533.29-0.85 532.44-1.7 532.44-2.95ZM543.54-2.95L543.54-2.95Q543.54-4.15 544.39-5.03 545.24-5.9 546.49-5.9L546.49-5.9Q547.79-5.9 548.69-5.03 549.59-4.15 549.59-2.95L549.59-2.95Q549.59-1.7 548.69-0.85 547.79 0 546.49 0L546.49 0Q545.24 0 544.39-0.85 543.54-1.7 543.54-2.95ZM554.63-2.95L554.63-2.95Q554.63-4.15 555.48-5.03 556.33-5.9 557.58-5.9L557.58-5.9Q558.88-5.9 559.78-5.03 560.68-4.15 560.68-2.95L560.68-2.95Q560.68-1.7 559.78-0.85 558.88 0 557.58 0L557.58 0Q556.33 0 555.48-0.85 554.63-1.7 554.63-2.95ZM565.73-2.95L565.73-2.95Q565.73-4.15 566.58-5.03 567.43-5.9 568.68-5.9L568.68-5.9Q569.98-5.9 570.88-5.03 571.78-4.15 571.78-2.95L571.78-2.95Q571.78-1.7 570.88-0.85 569.98 0 568.68 0L568.68 0Q567.43 0 566.58-0.85 565.73-1.7 565.73-2.95Z" opacity="1" transform="matrix(1,0,0,1,0,0)" fill="#000000" class="slogan-text-1" data-fill-palette-color="secondary" id="text-1"></path></svg></g></svg></g></svg></g></svg></g><g></g></svg></g><defs></defs></svg><rect width="395.52" height="113.51375661013333" fill="none" stroke="none" visibility="hidden"></rect></g></svg></g></svg>